<svg  height="40" version="1.1" width="40" xmlns="http://www.w3.org/2000/svg">
<desc style="-webkit-tap-highlight-color: rgba(0, 0, 0, 0);">Created with Raphaël 2.1.0</desc>
<defs style="-webkit-tap-highlight-color: rgba(0, 0, 0, 0);"></defs><path style="-webkit-tap-highlight-color: rgba(0, 0, 0, 0); stroke-linejoin: round; opacity: 0;" fill="none" stroke="#ffffff" d="M16,8.286C8.454,8.286,2.5,16,2.5,16S8.454,23.715,16,23.715C21.771,23.715,29.5,16,29.5,16S21.771,8.286,16,8.286ZM16,20.807C13.350999999999999,20.807,11.193,18.65,11.193,15.999999999999998S13.350999999999999,11.192999999999998,16,11.192999999999998S20.807000000000002,13.350999999999997,20.807000000000002,15.999999999999998S18.649,20.807,16,20.807ZM16,13.194C14.451,13.194,13.193999999999999,14.450000000000001,13.193999999999999,16C13.193999999999999,17.55,14.45,18.806,16,18.806C17.55,18.806,18.806,17.55,18.806,16C18.806,14.451,17.55,13.194,16,13.194Z" stroke-width="3" stroke-linejoin="round" opacity="0" transform="matrix(1,0,0,1,4,4)"></path><path style="-webkit-tap-highlight-color: rgba(0, 0, 0, 0);" fill="#333333" stroke="none" d="M16,8.286C8.454,8.286,2.5,16,2.5,16S8.454,23.715,16,23.715C21.771,23.715,29.5,16,29.5,16S21.771,8.286,16,8.286ZM16,20.807C13.350999999999999,20.807,11.193,18.65,11.193,15.999999999999998S13.350999999999999,11.192999999999998,16,11.192999999999998S20.807000000000002,13.350999999999997,20.807000000000002,15.999999999999998S18.649,20.807,16,20.807ZM16,13.194C14.451,13.194,13.193999999999999,14.450000000000001,13.193999999999999,16C13.193999999999999,17.55,14.45,18.806,16,18.806C17.55,18.806,18.806,17.55,18.806,16C18.806,14.451,17.55,13.194,16,13.194Z" transform="matrix(1,0,0,1,4,4)"></path><rect style="-webkit-tap-highlight-color: rgba(0, 0, 0, 0); opacity: 0;" x="0" y="0" width="32" height="32" r="0" rx="0" ry="0" fill="#000000" stroke="#000" opacity="0"></rect></svg>
