<?xml version="1.0" encoding="UTF-8" standalone="no"?>
<!DOCTYPE svg PUBLIC "-//W3C//DTD SVG 1.1//EN" "http://www.w3.org/Graphics/SVG/1.1/DTD/svg11.dtd">
<svg height="40" version="1.1" width="40" xmlns="http://www.w3.org/2000/svg">
<desc style="-webkit-tap-highlight-color: rgba(0, 0, 0, 0);">Created with Raphaël 2.1.0</desc>
<defs style="-webkit-tap-highlight-color: rgba(0, 0, 0, 0);"></defs>
<path style="-webkit-tap-highlight-color: rgba(0, 0, 0, 0); stroke-linejoin: round; opacity: 0;" fill="none" stroke="#ffffff" d="M24.875,15.334V10.457999999999998C24.875,5.563999999999998,20.894,1.5829999999999984,16,1.5829999999999984S7.125,5.563999999999998,7.125,10.457999999999998V15.334H5.042V30.417H26.958V15.334H24.875ZM10.625,10.458C10.625,7.494,13.036,5.083,16,5.083S21.375,7.494,21.375,10.458V15.334H10.625V10.458ZM18.272,26.956H13.726999999999999L14.948999999999998,23.289C14.166999999999998,22.900000000000002,13.624999999999998,22.101000000000003,13.624999999999998,21.17C13.624999999999998,19.858,14.687999999999999,18.795,15.999999999999998,18.795S18.375,19.857000000000003,18.375,21.17C18.375,22.102,17.833,22.900000000000002,17.051,23.289L18.272,26.956Z" stroke-width="3" stroke-linejoin="round" opacity="0" transform="matrix(1,0,0,1,4,4)"></path><path style="-webkit-tap-highlight-color: rgba(0, 0, 0, 0);" fill="#333333" stroke="none" d="M24.875,15.334V10.457999999999998C24.875,5.563999999999998,20.894,1.5829999999999984,16,1.5829999999999984S7.125,5.563999999999998,7.125,10.457999999999998V15.334H5.042V30.417H26.958V15.334H24.875ZM10.625,10.458C10.625,7.494,13.036,5.083,16,5.083S21.375,7.494,21.375,10.458V15.334H10.625V10.458ZM18.272,26.956H13.726999999999999L14.948999999999998,23.289C14.166999999999998,22.900000000000002,13.624999999999998,22.101000000000003,13.624999999999998,21.17C13.624999999999998,19.858,14.687999999999999,18.795,15.999999999999998,18.795S18.375,19.857000000000003,18.375,21.17C18.375,22.102,17.833,22.900000000000002,17.051,23.289L18.272,26.956Z" transform="matrix(1,0,0,1,4,4)"></path><rect style="-webkit-tap-highlight-color: rgba(0, 0, 0, 0); opacity: 0;" x="0" y="0" width="32" height="32" r="0" rx="0" ry="0" fill="#000000" stroke="#000" opacity="0"></rect></svg>
