<svg  height="40" version="1.1" width="40" xmlns="http://www.w3.org/2000/svg">
<desc style="-webkit-tap-highlight-color: rgba(0, 0, 0, 0);">Created with Raphaël 2.1.0</desc>
<defs style="-webkit-tap-highlight-color: rgba(0, 0, 0, 0);"></defs>
<path style="-webkit-tap-highlight-color: rgba(0, 0, 0, 0); stroke-linejoin: round; opacity: 0;" fill="none" stroke="#ffffff" d="M21.066,20.667C22.293,19.985000000000003,22.134,17.356,20.712,14.793000000000003C20.101,13.689000000000004,19.353,12.795000000000003,18.603,12.170000000000002C17.728,12.811000000000002,16.662000000000003,13.201000000000002,15.501000000000001,13.201000000000002C14.337000000000002,13.201000000000002,13.270000000000001,12.810000000000002,12.397000000000002,12.170000000000002C11.647000000000002,12.795000000000002,10.899000000000003,13.689000000000002,10.286000000000001,14.793000000000003C8.864,17.356,8.708000000000002,19.985000000000003,9.936000000000002,20.667C10.485000000000001,20.979000000000003,11.063000000000002,20.745,11.659000000000002,20.171000000000003C11.554000000000002,20.753000000000004,11.493000000000002,21.384000000000004,11.493000000000002,22.044000000000004C11.493000000000002,24.982000000000003,12.632000000000001,27.356000000000005,14.036000000000001,27.356000000000005C14.882000000000001,27.356000000000005,15.301000000000002,26.491000000000007,15.502,25.168000000000006C15.702,26.482000000000006,16.122,27.356000000000005,16.963,27.356000000000005C18.359,27.356000000000005,19.508000000000003,24.981000000000005,19.508000000000003,22.044000000000004C19.508000000000003,21.384000000000004,19.446,20.753000000000004,19.340000000000003,20.171000000000003C19.939,20.745,20.516,20.983,21.066,20.667ZM15.5,12.201C17.861,12.201,19.777,10.285,19.777,7.922000000000001S17.861,3.644,15.5,3.644C13.137,3.644,11.219999999999999,5.5600000000000005,11.219999999999999,7.923S13.137,12.201,15.5,12.201ZM24.094,14.914C26.032,14.914,27.606,13.341,27.606,11.401C27.606,9.462,26.033,7.888,24.094,7.888C22.154,7.888,20.581000000000003,9.461,20.581000000000003,11.401C20.581,13.341,22.153,14.914,24.094,14.914ZM28.374,17.043C27.872,16.136,27.258,15.402,26.642,14.889C25.924,15.415,25.048,15.735,24.096,15.735C23.34,15.735,22.637,15.527999999999999,22.02,15.184999999999999C22.516,16.278,22.823,17.384999999999998,22.881,18.375C22.974,19.891,22.5,21.016,21.552,21.54C21.348,21.657,21.126,21.723,20.899,21.764C20.843,22.156,20.804000000000002,22.564999999999998,20.804000000000002,22.995C20.804000000000002,25.407,21.739,27.356,22.892000000000003,27.356C23.586000000000002,27.356,23.931000000000004,26.646,24.096000000000004,25.560000000000002C24.259000000000004,26.639000000000003,24.604000000000003,27.356,25.295000000000005,27.356C26.441000000000006,27.356,27.385000000000005,25.406000000000002,27.385000000000005,22.995C27.385000000000005,22.453,27.333000000000006,21.935000000000002,27.246000000000006,21.457C27.738000000000007,21.929000000000002,28.212000000000007,22.124000000000002,28.664000000000005,21.864C29.671,21.305,29.541,19.146,28.374,17.043ZM6.906,14.914C8.844999999999999,14.914,10.418,13.341,10.418,11.401C10.418,9.462,8.844999999999999,7.888,6.905999999999999,7.888C4.965999999999999,7.888,3.391999999999999,9.461,3.391999999999999,11.401C3.392,13.341,4.966,14.914,6.906,14.914ZM9.441,21.536C7.848000000000001,20.651,7.702000000000001,18.012,8.984,15.182000000000002C8.365,15.528000000000002,7.662,15.735000000000003,6.906000000000001,15.735000000000003C5.950000000000001,15.735000000000003,5.074000000000001,15.414000000000003,4.357000000000001,14.889000000000003C3.741000000000001,15.402000000000003,3.128000000000001,16.136000000000003,2.624000000000001,17.043000000000003C1.457000000000001,19.147000000000002,1.329000000000001,21.305000000000003,2.337000000000001,21.864000000000004C2.788000000000001,22.121000000000006,3.2620000000000013,21.928000000000004,3.7510000000000012,21.457000000000004C3.6650000000000014,21.936000000000003,3.615000000000001,22.453000000000003,3.615000000000001,22.995000000000005C3.615000000000001,25.407000000000004,4.550000000000001,27.356000000000005,5.703000000000001,27.356000000000005C6.397000000000001,27.356000000000005,6.742000000000001,26.646000000000004,6.907000000000001,25.560000000000006C7.072000000000001,26.639000000000006,7.416000000000001,27.356000000000005,8.108,27.356000000000005C9.254000000000001,27.356000000000005,10.197000000000001,25.406000000000006,10.197000000000001,22.995000000000005C10.197000000000001,22.563000000000006,10.157000000000002,22.154000000000003,10.100000000000001,21.762000000000004C9.874,21.721,9.651,21.656,9.441,21.536Z" stroke-width="3" stroke-linejoin="round" opacity="0" transform="matrix(1,0,0,1,4,4)"></path><path style="-webkit-tap-highlight-color: rgba(0, 0, 0, 0);" fill="#333333" stroke="none" d="M21.066,20.667C22.293,19.985000000000003,22.134,17.356,20.712,14.793000000000003C20.101,13.689000000000004,19.353,12.795000000000003,18.603,12.170000000000002C17.728,12.811000000000002,16.662000000000003,13.201000000000002,15.501000000000001,13.201000000000002C14.337000000000002,13.201000000000002,13.270000000000001,12.810000000000002,12.397000000000002,12.170000000000002C11.647000000000002,12.795000000000002,10.899000000000003,13.689000000000002,10.286000000000001,14.793000000000003C8.864,17.356,8.708000000000002,19.985000000000003,9.936000000000002,20.667C10.485000000000001,20.979000000000003,11.063000000000002,20.745,11.659000000000002,20.171000000000003C11.554000000000002,20.753000000000004,11.493000000000002,21.384000000000004,11.493000000000002,22.044000000000004C11.493000000000002,24.982000000000003,12.632000000000001,27.356000000000005,14.036000000000001,27.356000000000005C14.882000000000001,27.356000000000005,15.301000000000002,26.491000000000007,15.502,25.168000000000006C15.702,26.482000000000006,16.122,27.356000000000005,16.963,27.356000000000005C18.359,27.356000000000005,19.508000000000003,24.981000000000005,19.508000000000003,22.044000000000004C19.508000000000003,21.384000000000004,19.446,20.753000000000004,19.340000000000003,20.171000000000003C19.939,20.745,20.516,20.983,21.066,20.667ZM15.5,12.201C17.861,12.201,19.777,10.285,19.777,7.922000000000001S17.861,3.644,15.5,3.644C13.137,3.644,11.219999999999999,5.5600000000000005,11.219999999999999,7.923S13.137,12.201,15.5,12.201ZM24.094,14.914C26.032,14.914,27.606,13.341,27.606,11.401C27.606,9.462,26.033,7.888,24.094,7.888C22.154,7.888,20.581000000000003,9.461,20.581000000000003,11.401C20.581,13.341,22.153,14.914,24.094,14.914ZM28.374,17.043C27.872,16.136,27.258,15.402,26.642,14.889C25.924,15.415,25.048,15.735,24.096,15.735C23.34,15.735,22.637,15.527999999999999,22.02,15.184999999999999C22.516,16.278,22.823,17.384999999999998,22.881,18.375C22.974,19.891,22.5,21.016,21.552,21.54C21.348,21.657,21.126,21.723,20.899,21.764C20.843,22.156,20.804000000000002,22.564999999999998,20.804000000000002,22.995C20.804000000000002,25.407,21.739,27.356,22.892000000000003,27.356C23.586000000000002,27.356,23.931000000000004,26.646,24.096000000000004,25.560000000000002C24.259000000000004,26.639000000000003,24.604000000000003,27.356,25.295000000000005,27.356C26.441000000000006,27.356,27.385000000000005,25.406000000000002,27.385000000000005,22.995C27.385000000000005,22.453,27.333000000000006,21.935000000000002,27.246000000000006,21.457C27.738000000000007,21.929000000000002,28.212000000000007,22.124000000000002,28.664000000000005,21.864C29.671,21.305,29.541,19.146,28.374,17.043ZM6.906,14.914C8.844999999999999,14.914,10.418,13.341,10.418,11.401C10.418,9.462,8.844999999999999,7.888,6.905999999999999,7.888C4.965999999999999,7.888,3.391999999999999,9.461,3.391999999999999,11.401C3.392,13.341,4.966,14.914,6.906,14.914ZM9.441,21.536C7.848000000000001,20.651,7.702000000000001,18.012,8.984,15.182000000000002C8.365,15.528000000000002,7.662,15.735000000000003,6.906000000000001,15.735000000000003C5.950000000000001,15.735000000000003,5.074000000000001,15.414000000000003,4.357000000000001,14.889000000000003C3.741000000000001,15.402000000000003,3.128000000000001,16.136000000000003,2.624000000000001,17.043000000000003C1.457000000000001,19.147000000000002,1.329000000000001,21.305000000000003,2.337000000000001,21.864000000000004C2.788000000000001,22.121000000000006,3.2620000000000013,21.928000000000004,3.7510000000000012,21.457000000000004C3.6650000000000014,21.936000000000003,3.615000000000001,22.453000000000003,3.615000000000001,22.995000000000005C3.615000000000001,25.407000000000004,4.550000000000001,27.356000000000005,5.703000000000001,27.356000000000005C6.397000000000001,27.356000000000005,6.742000000000001,26.646000000000004,6.907000000000001,25.560000000000006C7.072000000000001,26.639000000000006,7.416000000000001,27.356000000000005,8.108,27.356000000000005C9.254000000000001,27.356000000000005,10.197000000000001,25.406000000000006,10.197000000000001,22.995000000000005C10.197000000000001,22.563000000000006,10.157000000000002,22.154000000000003,10.100000000000001,21.762000000000004C9.874,21.721,9.651,21.656,9.441,21.536Z" transform="matrix(1,0,0,1,4,4)"></path><rect style="-webkit-tap-highlight-color: rgba(0, 0, 0, 0); opacity: 0;" x="0" y="0" width="32" height="32" r="0" rx="0" ry="0" fill="#000000" stroke="#000" opacity="0"></rect></svg>
