<svg height="40" version="1.1" width="40" xmlns="http://www.w3.org/2000/svg">
<desc style="-webkit-tap-highlight-color: rgba(0, 0, 0, 0);">Created with Raphaël 2.1.0</desc>
<defs style="-webkit-tap-highlight-color: rgba(0, 0, 0, 0);"></defs>
<path style="-webkit-tap-highlight-color: rgba(0, 0, 0, 0); stroke-linejoin: round; opacity: 0;" fill="none" stroke="#ffffff" d="M27.216,18.533C27.216,14.897000000000002,25.561,11.650000000000002,22.963,9.501000000000001L23.696,8.503000000000002L24.178,8.857000000000001C24.376,9.003000000000002,24.659000000000002,8.961,24.806,8.760000000000002L25.248,8.156000000000002C25.394000000000002,7.958000000000002,25.351000000000003,7.674000000000002,25.151,7.528000000000002L23.099,6.022000000000002C22.9,5.876000000000002,22.618,5.919000000000002,22.471,6.119000000000002L22.03,6.724C21.884,6.923,21.926000000000002,7.206,22.126,7.352L22.609,7.706L21.873,8.709C20.593,7.875,19.139000000000003,7.289999999999999,17.577,7.01C18.424000000000003,6.375,18.979000000000003,5.372,18.98,4.231999999999999H18.978C18.978,2.3099999999999996,17.421000000000003,0.7519999999999993,15.499000000000002,0.7519999999999993C13.574000000000002,0.7519999999999993,12.019000000000002,2.310999999999999,12.019000000000002,4.231999999999999C12.019000000000002,5.372999999999999,12.575000000000003,6.3759999999999994,13.420000000000002,7.01C11.871000000000002,7.287,10.430000000000001,7.867,9.155000000000001,8.69L8.424,7.684L8.908,7.331C9.106,7.186000000000001,9.152999999999999,6.9030000000000005,9.006,6.703L8.566,6.099C8.42,5.899,8.136,5.855,7.937,6.001L5.881,7.5C5.681,7.646,5.638,7.928,5.782,8.128L6.224,8.732C6.369,8.931999999999999,6.652,8.975999999999999,6.851,8.831L7.334,8.477L8.062999999999999,9.476C5.447999999999999,11.625,3.780999999999999,14.883000000000001,3.780999999999999,18.533C3.780999999999999,25.004,9.026,30.249000000000002,15.498999999999999,30.249000000000002C21.968999999999998,30.249000000000002,27.214999999999996,25.006,27.217,18.533H27.216ZM12.918,4.231C12.92,2.806,14.072999999999999,1.6509999999999998,15.5,1.649C16.926,1.651,18.079,2.806,18.081,4.231C18.079,5.423,17.269,6.415,16.173,6.713V4.943H16.773C17.019,4.943,17.222,4.739999999999999,17.222,4.494V3.746C17.222,3.499,17.019000000000002,3.297,16.773,3.297H14.228C13.981,3.297,13.779,3.499,13.779,3.746V4.495C13.779,4.741,13.981,4.944,14.228,4.944H14.827V6.714C13.729,6.415,12.919,5.424,12.918,4.231ZM15.5,27.554C10.517,27.546,6.484999999999999,23.516,6.478,18.532999999999998C6.486,13.550999999999998,10.517,9.519999999999998,15.5,9.510999999999997C20.481,9.520999999999997,24.512999999999998,13.550999999999998,24.521,18.532999999999998C24.513,23.514,20.481,27.546,15.5,27.554ZM15.5,12.138C15.975999999999999,12.138,16.361,11.753,16.361,11.278S15.975000000000001,10.417,15.5,10.417S14.639,10.802999999999999,14.639,11.278S15.024,12.138,15.5,12.138ZM15.5,24.927C15.024000000000001,24.927,14.639,25.313,14.639,25.788S15.024999999999999,26.649,15.5,26.649S16.361,26.263,16.361,25.788S15.976,24.927,15.5,24.927ZM12.618,11.818C12.381,11.405999999999999,11.854000000000001,11.264999999999999,11.442,11.503C11.03,11.741,10.888,12.268,11.127,12.68L13.994,19.402C14.475,20.233,15.536999999999999,20.518,16.369,20.039C17.198,19.560000000000002,17.483,18.496000000000002,17.004,17.665000000000003L12.618,11.818ZM18.698,24.07C18.286,24.307,18.143,24.835,18.382,25.246C18.619,25.657999999999998,19.146,25.799999999999997,19.558,25.561C19.971,25.323,20.111,24.796,19.874,24.385C19.635,23.974,19.108,23.832,18.698,24.07ZM8.787,15.65C9.199000000000002,15.888,9.725000000000001,15.747,9.963000000000001,15.335C10.200000000000001,14.922,10.06,14.397,9.649000000000001,14.159C9.237,13.92,8.711,14.061,8.472000000000001,14.472000000000001C8.234,14.886,8.375,15.412,8.787,15.65ZM22.215,21.413C21.803,21.177,21.277,21.317,21.039,21.729C20.801000000000002,22.141,20.94,22.666999999999998,21.353,22.904999999999998C21.763,23.142999999999997,22.290000000000003,23.002999999999997,22.529,22.590999999999998C22.768,22.178,22.625,21.652,22.215,21.413ZM9.107,18.531C9.104999999999999,18.055,8.719999999999999,17.671,8.245999999999999,17.671C7.768999999999998,17.671,7.383999999999999,18.056,7.383999999999999,18.531C7.384999999999999,19.006999999999998,7.769999999999999,19.391,8.245,19.392C8.722,19.393,9.106,19.008,9.107,18.531ZM21.896,18.531C21.896,19.008,22.28,19.392999999999997,22.755000000000003,19.391C23.231,19.392999999999997,23.617,19.008999999999997,23.617,18.531999999999996S23.23,17.671999999999997,22.755000000000003,17.669999999999998C22.279,17.671,21.896,18.056,21.896,18.531ZM8.787,21.413C8.375,21.651,8.233,22.178,8.471,22.589C8.71,23.000999999999998,9.236,23.142,9.648,22.904999999999998C10.061,22.665999999999997,10.201,22.139999999999997,9.963,21.726999999999997C9.725,21.317,9.198,21.176,8.787,21.413ZM21.352,14.157C20.941,14.395,20.801000000000002,14.921,21.04,15.333C21.276999999999997,15.746,21.804,15.888,22.214,15.648C22.625999999999998,15.411999999999999,22.769,14.886,22.529999999999998,14.472C22.29,14.06,21.766,13.921,21.352,14.157ZM12.304,24.067C11.891,23.832,11.365,23.971,11.128,24.382C10.89,24.795,11.03,25.321,11.44,25.560000000000002C11.853,25.796000000000003,12.379,25.656000000000002,12.617999999999999,25.245C12.857,24.832,12.715,24.308,12.304,24.067ZM18.698,12.992C19.108,13.23,19.636,13.091000000000001,19.872,12.679C20.11,12.268,19.972,11.741,19.558,11.502C19.144,11.264000000000001,18.621,11.405000000000001,18.381,11.817C18.144,12.229,18.286,12.755,18.698,12.992Z" stroke-width="3" stroke-linejoin="round" opacity="0" transform="matrix(1,0,0,1,4,4)"></path><path style="-webkit-tap-highlight-color: rgba(0, 0, 0, 0);" fill="#333333" stroke="none" d="M27.216,18.533C27.216,14.897000000000002,25.561,11.650000000000002,22.963,9.501000000000001L23.696,8.503000000000002L24.178,8.857000000000001C24.376,9.003000000000002,24.659000000000002,8.961,24.806,8.760000000000002L25.248,8.156000000000002C25.394000000000002,7.958000000000002,25.351000000000003,7.674000000000002,25.151,7.528000000000002L23.099,6.022000000000002C22.9,5.876000000000002,22.618,5.919000000000002,22.471,6.119000000000002L22.03,6.724C21.884,6.923,21.926000000000002,7.206,22.126,7.352L22.609,7.706L21.873,8.709C20.593,7.875,19.139000000000003,7.289999999999999,17.577,7.01C18.424000000000003,6.375,18.979000000000003,5.372,18.98,4.231999999999999H18.978C18.978,2.3099999999999996,17.421000000000003,0.7519999999999993,15.499000000000002,0.7519999999999993C13.574000000000002,0.7519999999999993,12.019000000000002,2.310999999999999,12.019000000000002,4.231999999999999C12.019000000000002,5.372999999999999,12.575000000000003,6.3759999999999994,13.420000000000002,7.01C11.871000000000002,7.287,10.430000000000001,7.867,9.155000000000001,8.69L8.424,7.684L8.908,7.331C9.106,7.186000000000001,9.152999999999999,6.9030000000000005,9.006,6.703L8.566,6.099C8.42,5.899,8.136,5.855,7.937,6.001L5.881,7.5C5.681,7.646,5.638,7.928,5.782,8.128L6.224,8.732C6.369,8.931999999999999,6.652,8.975999999999999,6.851,8.831L7.334,8.477L8.062999999999999,9.476C5.447999999999999,11.625,3.780999999999999,14.883000000000001,3.780999999999999,18.533C3.780999999999999,25.004,9.026,30.249000000000002,15.498999999999999,30.249000000000002C21.968999999999998,30.249000000000002,27.214999999999996,25.006,27.217,18.533H27.216ZM12.918,4.231C12.92,2.806,14.072999999999999,1.6509999999999998,15.5,1.649C16.926,1.651,18.079,2.806,18.081,4.231C18.079,5.423,17.269,6.415,16.173,6.713V4.943H16.773C17.019,4.943,17.222,4.739999999999999,17.222,4.494V3.746C17.222,3.499,17.019000000000002,3.297,16.773,3.297H14.228C13.981,3.297,13.779,3.499,13.779,3.746V4.495C13.779,4.741,13.981,4.944,14.228,4.944H14.827V6.714C13.729,6.415,12.919,5.424,12.918,4.231ZM15.5,27.554C10.517,27.546,6.484999999999999,23.516,6.478,18.532999999999998C6.486,13.550999999999998,10.517,9.519999999999998,15.5,9.510999999999997C20.481,9.520999999999997,24.512999999999998,13.550999999999998,24.521,18.532999999999998C24.513,23.514,20.481,27.546,15.5,27.554ZM15.5,12.138C15.975999999999999,12.138,16.361,11.753,16.361,11.278S15.975000000000001,10.417,15.5,10.417S14.639,10.802999999999999,14.639,11.278S15.024,12.138,15.5,12.138ZM15.5,24.927C15.024000000000001,24.927,14.639,25.313,14.639,25.788S15.024999999999999,26.649,15.5,26.649S16.361,26.263,16.361,25.788S15.976,24.927,15.5,24.927ZM12.618,11.818C12.381,11.405999999999999,11.854000000000001,11.264999999999999,11.442,11.503C11.03,11.741,10.888,12.268,11.127,12.68L13.994,19.402C14.475,20.233,15.536999999999999,20.518,16.369,20.039C17.198,19.560000000000002,17.483,18.496000000000002,17.004,17.665000000000003L12.618,11.818ZM18.698,24.07C18.286,24.307,18.143,24.835,18.382,25.246C18.619,25.657999999999998,19.146,25.799999999999997,19.558,25.561C19.971,25.323,20.111,24.796,19.874,24.385C19.635,23.974,19.108,23.832,18.698,24.07ZM8.787,15.65C9.199000000000002,15.888,9.725000000000001,15.747,9.963000000000001,15.335C10.200000000000001,14.922,10.06,14.397,9.649000000000001,14.159C9.237,13.92,8.711,14.061,8.472000000000001,14.472000000000001C8.234,14.886,8.375,15.412,8.787,15.65ZM22.215,21.413C21.803,21.177,21.277,21.317,21.039,21.729C20.801000000000002,22.141,20.94,22.666999999999998,21.353,22.904999999999998C21.763,23.142999999999997,22.290000000000003,23.002999999999997,22.529,22.590999999999998C22.768,22.178,22.625,21.652,22.215,21.413ZM9.107,18.531C9.104999999999999,18.055,8.719999999999999,17.671,8.245999999999999,17.671C7.768999999999998,17.671,7.383999999999999,18.056,7.383999999999999,18.531C7.384999999999999,19.006999999999998,7.769999999999999,19.391,8.245,19.392C8.722,19.393,9.106,19.008,9.107,18.531ZM21.896,18.531C21.896,19.008,22.28,19.392999999999997,22.755000000000003,19.391C23.231,19.392999999999997,23.617,19.008999999999997,23.617,18.531999999999996S23.23,17.671999999999997,22.755000000000003,17.669999999999998C22.279,17.671,21.896,18.056,21.896,18.531ZM8.787,21.413C8.375,21.651,8.233,22.178,8.471,22.589C8.71,23.000999999999998,9.236,23.142,9.648,22.904999999999998C10.061,22.665999999999997,10.201,22.139999999999997,9.963,21.726999999999997C9.725,21.317,9.198,21.176,8.787,21.413ZM21.352,14.157C20.941,14.395,20.801000000000002,14.921,21.04,15.333C21.276999999999997,15.746,21.804,15.888,22.214,15.648C22.625999999999998,15.411999999999999,22.769,14.886,22.529999999999998,14.472C22.29,14.06,21.766,13.921,21.352,14.157ZM12.304,24.067C11.891,23.832,11.365,23.971,11.128,24.382C10.89,24.795,11.03,25.321,11.44,25.560000000000002C11.853,25.796000000000003,12.379,25.656000000000002,12.617999999999999,25.245C12.857,24.832,12.715,24.308,12.304,24.067ZM18.698,12.992C19.108,13.23,19.636,13.091000000000001,19.872,12.679C20.11,12.268,19.972,11.741,19.558,11.502C19.144,11.264000000000001,18.621,11.405000000000001,18.381,11.817C18.144,12.229,18.286,12.755,18.698,12.992Z" transform="matrix(1,0,0,1,4,4)"></path><rect style="-webkit-tap-highlight-color: rgba(0, 0, 0, 0); opacity: 0;" x="0" y="0" width="32" height="32" r="0" rx="0" ry="0" fill="#000000" stroke="#000" opacity="0"></rect></svg>
